<?xml version="1.0" encoding="utf-8"?>
<svg xmlns="http://www.w3.org/2000/svg" xmlns:xlink="http://www.w3.org/1999/xlink" width="600" height="400" viewBox="0 0 2400 1600">
<defs>
  <clipPath id="clip630">
    <rect x="0" y="0" width="2400" height="1600"/>
  </clipPath>
</defs>
<path clip-path="url(#clip630)" d="M0 1600 L2400 1600 L2400 0 L0 0  Z" fill="#ffffff" fill-rule="evenodd" fill-opacity="1"/>
<defs>
  <clipPath id="clip631">
    <rect x="184" y="47" width="2170" height="1440"/>
  </clipPath>
</defs>
<path clip-path="url(#clip630)" d="M184.191 1486.45 L2352.76 1486.45 L2352.76 47.2441 L184.191 47.2441  Z" fill="#ffffff" fill-rule="evenodd" fill-opacity="1"/>
<polyline clip-path="url(#clip631)" style="stroke:#000000; stroke-linecap:round; stroke-linejoin:round; stroke-width:2; stroke-opacity:0.1; fill:none" points="245.565,1486.45 245.565,47.2441 "/>
<polyline clip-path="url(#clip631)" style="stroke:#000000; stroke-linecap:round; stroke-linejoin:round; stroke-width:2; stroke-opacity:0.1; fill:none" points="654.728,1486.45 654.728,47.2441 "/>
<polyline clip-path="url(#clip631)" style="stroke:#000000; stroke-linecap:round; stroke-linejoin:round; stroke-width:2; stroke-opacity:0.1; fill:none" points="1063.89,1486.45 1063.89,47.2441 "/>
<polyline clip-path="url(#clip631)" style="stroke:#000000; stroke-linecap:round; stroke-linejoin:round; stroke-width:2; stroke-opacity:0.1; fill:none" points="1473.05,1486.45 1473.05,47.2441 "/>
<polyline clip-path="url(#clip631)" style="stroke:#000000; stroke-linecap:round; stroke-linejoin:round; stroke-width:2; stroke-opacity:0.1; fill:none" points="1882.22,1486.45 1882.22,47.2441 "/>
<polyline clip-path="url(#clip631)" style="stroke:#000000; stroke-linecap:round; stroke-linejoin:round; stroke-width:2; stroke-opacity:0.1; fill:none" points="2291.38,1486.45 2291.38,47.2441 "/>
<polyline clip-path="url(#clip631)" style="stroke:#000000; stroke-linecap:round; stroke-linejoin:round; stroke-width:2; stroke-opacity:0.1; fill:none" points="184.191,1322.28 2352.76,1322.28 "/>
<polyline clip-path="url(#clip631)" style="stroke:#000000; stroke-linecap:round; stroke-linejoin:round; stroke-width:2; stroke-opacity:0.1; fill:none" points="184.191,1013.71 2352.76,1013.71 "/>
<polyline clip-path="url(#clip631)" style="stroke:#000000; stroke-linecap:round; stroke-linejoin:round; stroke-width:2; stroke-opacity:0.1; fill:none" points="184.191,705.131 2352.76,705.131 "/>
<polyline clip-path="url(#clip631)" style="stroke:#000000; stroke-linecap:round; stroke-linejoin:round; stroke-width:2; stroke-opacity:0.1; fill:none" points="184.191,396.553 2352.76,396.553 "/>
<polyline clip-path="url(#clip631)" style="stroke:#000000; stroke-linecap:round; stroke-linejoin:round; stroke-width:2; stroke-opacity:0.1; fill:none" points="184.191,87.9763 2352.76,87.9763 "/>
<polyline clip-path="url(#clip630)" style="stroke:#000000; stroke-linecap:round; stroke-linejoin:round; stroke-width:4; stroke-opacity:1; fill:none" points="184.191,1486.45 2352.76,1486.45 "/>
<polyline clip-path="url(#clip630)" style="stroke:#000000; stroke-linecap:round; stroke-linejoin:round; stroke-width:4; stroke-opacity:1; fill:none" points="245.565,1486.45 245.565,1467.55 "/>
<polyline clip-path="url(#clip630)" style="stroke:#000000; stroke-linecap:round; stroke-linejoin:round; stroke-width:4; stroke-opacity:1; fill:none" points="654.728,1486.45 654.728,1467.55 "/>
<polyline clip-path="url(#clip630)" style="stroke:#000000; stroke-linecap:round; stroke-linejoin:round; stroke-width:4; stroke-opacity:1; fill:none" points="1063.89,1486.45 1063.89,1467.55 "/>
<polyline clip-path="url(#clip630)" style="stroke:#000000; stroke-linecap:round; stroke-linejoin:round; stroke-width:4; stroke-opacity:1; fill:none" points="1473.05,1486.45 1473.05,1467.55 "/>
<polyline clip-path="url(#clip630)" style="stroke:#000000; stroke-linecap:round; stroke-linejoin:round; stroke-width:4; stroke-opacity:1; fill:none" points="1882.22,1486.45 1882.22,1467.55 "/>
<polyline clip-path="url(#clip630)" style="stroke:#000000; stroke-linecap:round; stroke-linejoin:round; stroke-width:4; stroke-opacity:1; fill:none" points="2291.38,1486.45 2291.38,1467.55 "/>
<path clip-path="url(#clip630)" d="M245.565 1517.37 Q241.954 1517.37 240.125 1520.93 Q238.32 1524.47 238.32 1531.6 Q238.32 1538.71 240.125 1542.27 Q241.954 1545.82 245.565 1545.82 Q249.199 1545.82 251.005 1542.27 Q252.834 1538.71 252.834 1531.6 Q252.834 1524.47 251.005 1520.93 Q249.199 1517.37 245.565 1517.37 M245.565 1513.66 Q251.375 1513.66 254.431 1518.27 Q257.51 1522.85 257.51 1531.6 Q257.51 1540.33 254.431 1544.94 Q251.375 1549.52 245.565 1549.52 Q239.755 1549.52 236.676 1544.94 Q233.621 1540.33 233.621 1531.6 Q233.621 1522.85 236.676 1518.27 Q239.755 1513.66 245.565 1513.66 Z" fill="#000000" fill-rule="nonzero" fill-opacity="1" /><path clip-path="url(#clip630)" d="M645.11 1544.91 L652.749 1544.91 L652.749 1518.55 L644.439 1520.21 L644.439 1515.95 L652.703 1514.29 L657.379 1514.29 L657.379 1544.91 L665.018 1544.91 L665.018 1548.85 L645.11 1548.85 L645.11 1544.91 Z" fill="#000000" fill-rule="nonzero" fill-opacity="1" /><path clip-path="url(#clip630)" d="M1058.54 1544.91 L1074.86 1544.91 L1074.86 1548.85 L1052.92 1548.85 L1052.92 1544.91 Q1055.58 1542.16 1060.16 1537.53 Q1064.77 1532.88 1065.95 1531.53 Q1068.2 1529.01 1069.08 1527.27 Q1069.98 1525.51 1069.98 1523.82 Q1069.98 1521.07 1068.04 1519.33 Q1066.11 1517.6 1063.01 1517.6 Q1060.81 1517.6 1058.36 1518.36 Q1055.93 1519.13 1053.15 1520.68 L1053.15 1515.95 Q1055.98 1514.82 1058.43 1514.24 Q1060.88 1513.66 1062.92 1513.66 Q1068.29 1513.66 1071.48 1516.35 Q1074.68 1519.03 1074.68 1523.52 Q1074.68 1525.65 1073.87 1527.57 Q1073.08 1529.47 1070.97 1532.07 Q1070.4 1532.74 1067.29 1535.95 Q1064.19 1539.15 1058.54 1544.91 Z" fill="#000000" fill-rule="nonzero" fill-opacity="1" /><path clip-path="url(#clip630)" d="M1477.3 1530.21 Q1480.66 1530.93 1482.53 1533.2 Q1484.43 1535.47 1484.43 1538.8 Q1484.43 1543.92 1480.91 1546.72 Q1477.4 1549.52 1470.91 1549.52 Q1468.74 1549.52 1466.42 1549.08 Q1464.13 1548.66 1461.68 1547.81 L1461.68 1543.29 Q1463.62 1544.43 1465.94 1545.01 Q1468.25 1545.58 1470.77 1545.58 Q1475.17 1545.58 1477.46 1543.85 Q1479.78 1542.11 1479.78 1538.8 Q1479.78 1535.75 1477.63 1534.03 Q1475.5 1532.3 1471.68 1532.3 L1467.65 1532.3 L1467.65 1528.45 L1471.86 1528.45 Q1475.31 1528.45 1477.14 1527.09 Q1478.97 1525.7 1478.97 1523.11 Q1478.97 1520.45 1477.07 1519.03 Q1475.2 1517.6 1471.68 1517.6 Q1469.76 1517.6 1467.56 1518.01 Q1465.36 1518.43 1462.72 1519.31 L1462.72 1515.14 Q1465.38 1514.4 1467.7 1514.03 Q1470.03 1513.66 1472.09 1513.66 Q1477.42 1513.66 1480.52 1516.09 Q1483.62 1518.5 1483.62 1522.62 Q1483.62 1525.49 1481.98 1527.48 Q1480.33 1529.45 1477.3 1530.21 Z" fill="#000000" fill-rule="nonzero" fill-opacity="1" /><path clip-path="url(#clip630)" d="M1885.23 1518.36 L1873.42 1536.81 L1885.23 1536.81 L1885.23 1518.36 M1884 1514.29 L1889.88 1514.29 L1889.88 1536.81 L1894.81 1536.81 L1894.81 1540.7 L1889.88 1540.7 L1889.88 1548.85 L1885.23 1548.85 L1885.23 1540.7 L1869.63 1540.7 L1869.63 1536.19 L1884 1514.29 Z" fill="#000000" fill-rule="nonzero" fill-opacity="1" /><path clip-path="url(#clip630)" d="M2281.66 1514.29 L2300.02 1514.29 L2300.02 1518.22 L2285.94 1518.22 L2285.94 1526.7 Q2286.96 1526.35 2287.98 1526.19 Q2289 1526 2290.02 1526 Q2295.8 1526 2299.18 1529.17 Q2302.56 1532.34 2302.56 1537.76 Q2302.56 1543.34 2299.09 1546.44 Q2295.62 1549.52 2289.3 1549.52 Q2287.12 1549.52 2284.85 1549.15 Q2282.61 1548.78 2280.2 1548.04 L2280.2 1543.34 Q2282.28 1544.47 2284.51 1545.03 Q2286.73 1545.58 2289.21 1545.58 Q2293.21 1545.58 2295.55 1543.48 Q2297.89 1541.37 2297.89 1537.76 Q2297.89 1534.15 2295.55 1532.04 Q2293.21 1529.94 2289.21 1529.94 Q2287.33 1529.94 2285.46 1530.35 Q2283.6 1530.77 2281.66 1531.65 L2281.66 1514.29 Z" fill="#000000" fill-rule="nonzero" fill-opacity="1" /><polyline clip-path="url(#clip630)" style="stroke:#000000; stroke-linecap:round; stroke-linejoin:round; stroke-width:4; stroke-opacity:1; fill:none" points="184.191,1486.45 184.191,47.2441 "/>
<polyline clip-path="url(#clip630)" style="stroke:#000000; stroke-linecap:round; stroke-linejoin:round; stroke-width:4; stroke-opacity:1; fill:none" points="184.191,1322.28 203.088,1322.28 "/>
<polyline clip-path="url(#clip630)" style="stroke:#000000; stroke-linecap:round; stroke-linejoin:round; stroke-width:4; stroke-opacity:1; fill:none" points="184.191,1013.71 203.088,1013.71 "/>
<polyline clip-path="url(#clip630)" style="stroke:#000000; stroke-linecap:round; stroke-linejoin:round; stroke-width:4; stroke-opacity:1; fill:none" points="184.191,705.131 203.088,705.131 "/>
<polyline clip-path="url(#clip630)" style="stroke:#000000; stroke-linecap:round; stroke-linejoin:round; stroke-width:4; stroke-opacity:1; fill:none" points="184.191,396.553 203.088,396.553 "/>
<polyline clip-path="url(#clip630)" style="stroke:#000000; stroke-linecap:round; stroke-linejoin:round; stroke-width:4; stroke-opacity:1; fill:none" points="184.191,87.9763 203.088,87.9763 "/>
<path clip-path="url(#clip630)" d="M91.0151 1308.08 Q87.404 1308.08 85.5753 1311.65 Q83.7697 1315.19 83.7697 1322.32 Q83.7697 1329.43 85.5753 1332.99 Q87.404 1336.53 91.0151 1336.53 Q94.6493 1336.53 96.4548 1332.99 Q98.2835 1329.43 98.2835 1322.32 Q98.2835 1315.19 96.4548 1311.65 Q94.6493 1308.08 91.0151 1308.08 M91.0151 1304.38 Q96.8252 1304.38 99.8808 1308.99 Q102.959 1313.57 102.959 1322.32 Q102.959 1331.05 99.8808 1335.65 Q96.8252 1340.24 91.0151 1340.24 Q85.2049 1340.24 82.1262 1335.65 Q79.0707 1331.05 79.0707 1322.32 Q79.0707 1313.57 82.1262 1308.99 Q85.2049 1304.38 91.0151 1304.38 Z" fill="#000000" fill-rule="nonzero" fill-opacity="1" /><path clip-path="url(#clip630)" d="M111.177 1333.69 L116.061 1333.69 L116.061 1339.56 L111.177 1339.56 L111.177 1333.69 Z" fill="#000000" fill-rule="nonzero" fill-opacity="1" /><path clip-path="url(#clip630)" d="M136.246 1308.08 Q132.635 1308.08 130.807 1311.65 Q129.001 1315.19 129.001 1322.32 Q129.001 1329.43 130.807 1332.99 Q132.635 1336.53 136.246 1336.53 Q139.881 1336.53 141.686 1332.99 Q143.515 1329.43 143.515 1322.32 Q143.515 1315.19 141.686 1311.65 Q139.881 1308.08 136.246 1308.08 M136.246 1304.38 Q142.056 1304.38 145.112 1308.99 Q148.191 1313.57 148.191 1322.32 Q148.191 1331.05 145.112 1335.65 Q142.056 1340.24 136.246 1340.24 Q130.436 1340.24 127.357 1335.65 Q124.302 1331.05 124.302 1322.32 Q124.302 1313.57 127.357 1308.99 Q130.436 1304.38 136.246 1304.38 Z" fill="#000000" fill-rule="nonzero" fill-opacity="1" /><path clip-path="url(#clip630)" d="M86.0382 1027.05 L102.358 1027.05 L102.358 1030.99 L80.4133 1030.99 L80.4133 1027.05 Q83.0753 1024.3 87.6586 1019.67 Q92.2651 1015.02 93.4456 1013.67 Q95.691 1011.15 96.5706 1009.41 Q97.4734 1007.65 97.4734 1005.96 Q97.4734 1003.21 95.5289 1001.47 Q93.6076 999.738 90.5058 999.738 Q88.3067 999.738 85.8531 1000.5 Q83.4225 1001.27 80.6447 1002.82 L80.6447 998.094 Q83.4688 996.96 85.9225 996.381 Q88.3762 995.803 90.4132 995.803 Q95.7836 995.803 98.978 998.488 Q102.172 1001.17 102.172 1005.66 Q102.172 1007.79 101.362 1009.71 Q100.575 1011.61 98.4687 1014.21 Q97.89 1014.88 94.7882 1018.09 Q91.6864 1021.29 86.0382 1027.05 Z" fill="#000000" fill-rule="nonzero" fill-opacity="1" /><path clip-path="url(#clip630)" d="M112.172 1025.11 L117.057 1025.11 L117.057 1030.99 L112.172 1030.99 L112.172 1025.11 Z" fill="#000000" fill-rule="nonzero" fill-opacity="1" /><path clip-path="url(#clip630)" d="M127.288 996.428 L145.644 996.428 L145.644 1000.36 L131.57 1000.36 L131.57 1008.84 Q132.589 1008.49 133.607 1008.33 Q134.626 1008.14 135.644 1008.14 Q141.431 1008.14 144.811 1011.31 Q148.191 1014.48 148.191 1019.9 Q148.191 1025.48 144.718 1028.58 Q141.246 1031.66 134.927 1031.66 Q132.751 1031.66 130.482 1031.29 Q128.237 1030.92 125.83 1030.18 L125.83 1025.48 Q127.913 1026.61 130.135 1027.17 Q132.357 1027.72 134.834 1027.72 Q138.839 1027.72 141.177 1025.62 Q143.515 1023.51 143.515 1019.9 Q143.515 1016.29 141.177 1014.18 Q138.839 1012.08 134.834 1012.08 Q132.959 1012.08 131.084 1012.49 Q129.232 1012.91 127.288 1013.79 L127.288 996.428 Z" fill="#000000" fill-rule="nonzero" fill-opacity="1" /><path clip-path="url(#clip630)" d="M81.0614 687.851 L99.4178 687.851 L99.4178 691.786 L85.3438 691.786 L85.3438 700.258 Q86.3623 699.911 87.3808 699.749 Q88.3993 699.563 89.4178 699.563 Q95.2049 699.563 98.5845 702.735 Q101.964 705.906 101.964 711.323 Q101.964 716.901 98.4919 720.003 Q95.0197 723.082 88.7003 723.082 Q86.5243 723.082 84.2558 722.711 Q82.0105 722.341 79.6031 721.6 L79.6031 716.901 Q81.6864 718.036 83.9086 718.591 Q86.1308 719.147 88.6077 719.147 Q92.6123 719.147 94.9502 717.04 Q97.2882 714.934 97.2882 711.323 Q97.2882 707.712 94.9502 705.605 Q92.6123 703.499 88.6077 703.499 Q86.7327 703.499 84.8577 703.915 Q83.0058 704.332 81.0614 705.212 L81.0614 687.851 Z" fill="#000000" fill-rule="nonzero" fill-opacity="1" /><path clip-path="url(#clip630)" d="M111.177 716.531 L116.061 716.531 L116.061 722.411 L111.177 722.411 L111.177 716.531 Z" fill="#000000" fill-rule="nonzero" fill-opacity="1" /><path clip-path="url(#clip630)" d="M136.246 690.929 Q132.635 690.929 130.807 694.494 Q129.001 698.036 129.001 705.165 Q129.001 712.272 130.807 715.837 Q132.635 719.378 136.246 719.378 Q139.881 719.378 141.686 715.837 Q143.515 712.272 143.515 705.165 Q143.515 698.036 141.686 694.494 Q139.881 690.929 136.246 690.929 M136.246 687.226 Q142.056 687.226 145.112 691.832 Q148.191 696.415 148.191 705.165 Q148.191 713.892 145.112 718.499 Q142.056 723.082 136.246 723.082 Q130.436 723.082 127.357 718.499 Q124.302 713.892 124.302 705.165 Q124.302 696.415 127.357 691.832 Q130.436 687.226 136.246 687.226 Z" fill="#000000" fill-rule="nonzero" fill-opacity="1" /><path clip-path="url(#clip630)" d="M80.8299 379.273 L103.052 379.273 L103.052 381.264 L90.5058 413.833 L85.6216 413.833 L97.4271 383.209 L80.8299 383.209 L80.8299 379.273 Z" fill="#000000" fill-rule="nonzero" fill-opacity="1" /><path clip-path="url(#clip630)" d="M112.172 407.954 L117.057 407.954 L117.057 413.833 L112.172 413.833 L112.172 407.954 Z" fill="#000000" fill-rule="nonzero" fill-opacity="1" /><path clip-path="url(#clip630)" d="M127.288 379.273 L145.644 379.273 L145.644 383.209 L131.57 383.209 L131.57 391.681 Q132.589 391.334 133.607 391.172 Q134.626 390.986 135.644 390.986 Q141.431 390.986 144.811 394.158 Q148.191 397.329 148.191 402.746 Q148.191 408.324 144.718 411.426 Q141.246 414.505 134.927 414.505 Q132.751 414.505 130.482 414.134 Q128.237 413.764 125.83 413.023 L125.83 408.324 Q127.913 409.458 130.135 410.014 Q132.357 410.57 134.834 410.57 Q138.839 410.57 141.177 408.463 Q143.515 406.357 143.515 402.746 Q143.515 399.134 141.177 397.028 Q138.839 394.921 134.834 394.921 Q132.959 394.921 131.084 395.338 Q129.232 395.755 127.288 396.634 L127.288 379.273 Z" fill="#000000" fill-rule="nonzero" fill-opacity="1" /><path clip-path="url(#clip630)" d="M51.6634 101.321 L59.3023 101.321 L59.3023 74.9555 L50.9921 76.6222 L50.9921 72.3629 L59.256 70.6963 L63.9319 70.6963 L63.9319 101.321 L71.5707 101.321 L71.5707 105.256 L51.6634 105.256 L51.6634 101.321 Z" fill="#000000" fill-rule="nonzero" fill-opacity="1" /><path clip-path="url(#clip630)" d="M91.0151 73.775 Q87.404 73.775 85.5753 77.3398 Q83.7697 80.8814 83.7697 88.011 Q83.7697 95.1174 85.5753 98.6822 Q87.404 102.224 91.0151 102.224 Q94.6493 102.224 96.4548 98.6822 Q98.2835 95.1174 98.2835 88.011 Q98.2835 80.8814 96.4548 77.3398 Q94.6493 73.775 91.0151 73.775 M91.0151 70.0713 Q96.8252 70.0713 99.8808 74.6777 Q102.959 79.261 102.959 88.011 Q102.959 96.7378 99.8808 101.344 Q96.8252 105.928 91.0151 105.928 Q85.2049 105.928 82.1262 101.344 Q79.0707 96.7378 79.0707 88.011 Q79.0707 79.261 82.1262 74.6777 Q85.2049 70.0713 91.0151 70.0713 Z" fill="#000000" fill-rule="nonzero" fill-opacity="1" /><path clip-path="url(#clip630)" d="M111.177 99.3767 L116.061 99.3767 L116.061 105.256 L111.177 105.256 L111.177 99.3767 Z" fill="#000000" fill-rule="nonzero" fill-opacity="1" /><path clip-path="url(#clip630)" d="M136.246 73.775 Q132.635 73.775 130.807 77.3398 Q129.001 80.8814 129.001 88.011 Q129.001 95.1174 130.807 98.6822 Q132.635 102.224 136.246 102.224 Q139.881 102.224 141.686 98.6822 Q143.515 95.1174 143.515 88.011 Q143.515 80.8814 141.686 77.3398 Q139.881 73.775 136.246 73.775 M136.246 70.0713 Q142.056 70.0713 145.112 74.6777 Q148.191 79.261 148.191 88.011 Q148.191 96.7378 145.112 101.344 Q142.056 105.928 136.246 105.928 Q130.436 105.928 127.357 101.344 Q124.302 96.7378 124.302 88.011 Q124.302 79.261 127.357 74.6777 Q130.436 70.0713 136.246 70.0713 Z" fill="#000000" fill-rule="nonzero" fill-opacity="1" /><circle clip-path="url(#clip631)" cx="245.565" cy="1322.28" r="14.4" fill="#009af9" fill-rule="evenodd" fill-opacity="1" stroke="#000000" stroke-opacity="1" stroke-width="3.2"/>
<circle clip-path="url(#clip631)" cx="654.728" cy="951.992" r="14.4" fill="#009af9" fill-rule="evenodd" fill-opacity="1" stroke="#000000" stroke-opacity="1" stroke-width="3.2"/>
<circle clip-path="url(#clip631)" cx="1063.89" cy="1445.72" r="14.4" fill="#009af9" fill-rule="evenodd" fill-opacity="1" stroke="#000000" stroke-opacity="1" stroke-width="3.2"/>
<circle clip-path="url(#clip631)" cx="2291.38" cy="581.7" r="14.4" fill="#009af9" fill-rule="evenodd" fill-opacity="1" stroke="#000000" stroke-opacity="1" stroke-width="3.2"/>
<circle clip-path="url(#clip631)" cx="1063.89" cy="87.9763" r="14.4" fill="#009af9" fill-rule="evenodd" fill-opacity="1" stroke="#000000" stroke-opacity="1" stroke-width="3.2"/>
<circle clip-path="url(#clip631)" cx="450.147" cy="828.561" r="14.4" fill="#009af9" fill-rule="evenodd" fill-opacity="1" stroke="#000000" stroke-opacity="1" stroke-width="3.2"/>
<circle clip-path="url(#clip631)" cx="1063.89" cy="458.269" r="14.4" fill="#009af9" fill-rule="evenodd" fill-opacity="1" stroke="#000000" stroke-opacity="1" stroke-width="3.2"/>
<circle clip-path="url(#clip631)" cx="1882.22" cy="1075.42" r="14.4" fill="#009af9" fill-rule="evenodd" fill-opacity="1" stroke="#000000" stroke-opacity="1" stroke-width="3.2"/>
<polyline clip-path="url(#clip631)" style="stroke:#e26f46; stroke-linecap:round; stroke-linejoin:round; stroke-width:4; stroke-opacity:1; fill:none" points="245.565,1322.28 654.728,951.992 1063.89,1445.72 2291.38,581.7 1063.89,87.9763 450.147,828.561 1063.89,458.269 1882.22,1075.42 "/>
<polyline clip-path="url(#clip631)" style="stroke:#3da44d; stroke-linecap:round; stroke-linejoin:round; stroke-width:4; stroke-opacity:1; fill:none" points="245.565,1322.28 274.524,1297.88 303.64,1276.71 333.039,1258.35 362.819,1242.4 393.047,1228.5 423.766,1216.31 454.996,1205.51 486.736,1195.83 518.965,1187 551.647,1178.79 584.728,1171.01 618.145,1163.45 651.821,1155.96 685.67,1148.39 719.598,1140.62 753.504,1132.53 787.285,1124.05 820.83,1115.09 854.028,1105.6 886.767,1095.54 918.934,1084.87 950.418,1073.57 981.108,1061.63 1010.9,1049.07 1039.68,1035.89 1067.37,1022.1 1093.86,1007.75 1119.07,992.869 1142.91,977.493 1165.32,961.672 1186.22,945.461 1205.56,928.913 1223.29,912.09 1239.36,895.054 1253.75,877.87 1266.42,860.602 1277.36,843.319 1286.57,826.088 1294.05,808.976 1299.8,792.048 1303.86,775.371 1306.26,759.008 1307.02,743.021 1306.21,727.47 1303.88,712.411 1300.08,697.897 1294.91,683.98 1288.43,670.706 1280.74,658.118 1271.93,646.256 1262.1,635.154 1251.37,624.843 1239.84,615.35 1227.64,606.697 1214.89,598.902 1201.72,591.977 1188.27,585.933 1174.66,580.773 1161.05,576.498 1147.56,573.106 1134.34,570.588 1121.54,568.934 1109.3,568.13 1097.76,568.16 1087.07,569.003 1077.36,570.638 1068.78,573.041 1061.46,576.188 1055.53,580.052 1051.13,584.607 1048.38,589.828 1047.39,595.69 1048.28,602.169 1051.15,609.244 1056.11,616.897 1063.24,625.114 1072.64,633.886 1084.37,643.208 1098.49,653.083 1115.07,663.52 1134.15,674.54 1155.76,686.168 1179.92,698.444 1206.65,711.419 1235.95,725.155 1267.79,739.731 1302.15,755.239 1338.99,771.789 1378.26,789.51 1419.89,808.55 1463.79,829.077 1509.87,851.285 1558.02,875.388 1608.1,901.63 1659.99,930.28 1713.53,961.637 1768.53,996.032 1824.83,1033.83 1882.22,1075.42 "/>
<path clip-path="url(#clip630)" d="M1736.56 302.578 L2280.47 302.578 L2280.47 95.2176 L1736.56 95.2176  Z" fill="#ffffff" fill-rule="evenodd" fill-opacity="1"/>
<polyline clip-path="url(#clip630)" style="stroke:#000000; stroke-linecap:round; stroke-linejoin:round; stroke-width:4; stroke-opacity:1; fill:none" points="1736.56,302.578 2280.47,302.578 2280.47,95.2176 1736.56,95.2176 1736.56,302.578 "/>
<circle clip-path="url(#clip630)" cx="1832.94" cy="147.058" r="20.48" fill="#009af9" fill-rule="evenodd" fill-opacity="1" stroke="#000000" stroke-opacity="1" stroke-width="4.55111"/>
<path clip-path="url(#clip630)" d="M1957.19 132.44 L1957.19 137.37 Q1954.83 135.171 1952.14 134.083 Q1949.48 132.995 1946.47 132.995 Q1940.54 132.995 1937.4 136.629 Q1934.25 140.24 1934.25 147.092 Q1934.25 153.921 1937.4 157.555 Q1940.54 161.166 1946.47 161.166 Q1949.48 161.166 1952.14 160.078 Q1954.83 158.99 1957.19 156.791 L1957.19 161.676 Q1954.73 163.342 1951.98 164.176 Q1949.25 165.009 1946.19 165.009 Q1938.34 165.009 1933.83 160.217 Q1929.32 155.402 1929.32 147.092 Q1929.32 138.759 1933.83 133.967 Q1938.34 129.153 1946.19 129.153 Q1949.29 129.153 1952.03 129.986 Q1954.78 130.796 1957.19 132.44 Z" fill="#000000" fill-rule="nonzero" fill-opacity="1" /><path clip-path="url(#clip630)" d="M1974.27 141.398 Q1970.84 141.398 1968.85 144.083 Q1966.86 146.745 1966.86 151.398 Q1966.86 156.051 1968.83 158.736 Q1970.82 161.398 1974.27 161.398 Q1977.67 161.398 1979.66 158.713 Q1981.65 156.027 1981.65 151.398 Q1981.65 146.791 1979.66 144.106 Q1977.67 141.398 1974.27 141.398 M1974.27 137.787 Q1979.83 137.787 1983 141.398 Q1986.17 145.009 1986.17 151.398 Q1986.17 157.764 1983 161.398 Q1979.83 165.009 1974.27 165.009 Q1968.69 165.009 1965.52 161.398 Q1962.37 157.764 1962.37 151.398 Q1962.37 145.009 1965.52 141.398 Q1968.69 137.787 1974.27 137.787 Z" fill="#000000" fill-rule="nonzero" fill-opacity="1" /><path clip-path="url(#clip630)" d="M2014.78 148.689 L2014.78 164.338 L2010.52 164.338 L2010.52 148.828 Q2010.52 145.148 2009.08 143.319 Q2007.65 141.49 2004.78 141.49 Q2001.33 141.49 1999.34 143.69 Q1997.35 145.889 1997.35 149.685 L1997.35 164.338 L1993.07 164.338 L1993.07 138.412 L1997.35 138.412 L1997.35 142.44 Q1998.88 140.102 2000.94 138.944 Q2003.02 137.787 2005.73 137.787 Q2010.2 137.787 2012.49 140.565 Q2014.78 143.319 2014.78 148.689 Z" fill="#000000" fill-rule="nonzero" fill-opacity="1" /><path clip-path="url(#clip630)" d="M2027.49 131.051 L2027.49 138.412 L2036.26 138.412 L2036.26 141.722 L2027.49 141.722 L2027.49 155.796 Q2027.49 158.967 2028.34 159.87 Q2029.22 160.773 2031.89 160.773 L2036.26 160.773 L2036.26 164.338 L2031.89 164.338 Q2026.96 164.338 2025.08 162.509 Q2023.21 160.657 2023.21 155.796 L2023.21 141.722 L2020.08 141.722 L2020.08 138.412 L2023.21 138.412 L2023.21 131.051 L2027.49 131.051 Z" fill="#000000" fill-rule="nonzero" fill-opacity="1" /><path clip-path="url(#clip630)" d="M2056.89 142.393 Q2056.17 141.977 2055.31 141.791 Q2054.48 141.583 2053.46 141.583 Q2049.85 141.583 2047.9 143.944 Q2045.98 146.282 2045.98 150.68 L2045.98 164.338 L2041.7 164.338 L2041.7 138.412 L2045.98 138.412 L2045.98 142.44 Q2047.33 140.078 2049.48 138.944 Q2051.63 137.787 2054.71 137.787 Q2055.15 137.787 2055.68 137.856 Q2056.21 137.903 2056.86 138.018 L2056.89 142.393 Z" fill="#000000" fill-rule="nonzero" fill-opacity="1" /><path clip-path="url(#clip630)" d="M2070.36 141.398 Q2066.93 141.398 2064.94 144.083 Q2062.95 146.745 2062.95 151.398 Q2062.95 156.051 2064.92 158.736 Q2066.91 161.398 2070.36 161.398 Q2073.76 161.398 2075.75 158.713 Q2077.74 156.027 2077.74 151.398 Q2077.74 146.791 2075.75 144.106 Q2073.76 141.398 2070.36 141.398 M2070.36 137.787 Q2075.91 137.787 2079.08 141.398 Q2082.26 145.009 2082.26 151.398 Q2082.26 157.764 2079.08 161.398 Q2075.91 165.009 2070.36 165.009 Q2064.78 165.009 2061.61 161.398 Q2058.46 157.764 2058.46 151.398 Q2058.46 145.009 2061.61 141.398 Q2064.78 137.787 2070.36 137.787 Z" fill="#000000" fill-rule="nonzero" fill-opacity="1" /><path clip-path="url(#clip630)" d="M2089.32 128.319 L2093.58 128.319 L2093.58 164.338 L2089.32 164.338 L2089.32 128.319 Z" fill="#000000" fill-rule="nonzero" fill-opacity="1" /><path clip-path="url(#clip630)" d="M2121.68 160.449 L2121.68 174.199 L2117.39 174.199 L2117.39 138.412 L2121.68 138.412 L2121.68 142.347 Q2123.02 140.032 2125.06 138.921 Q2127.12 137.787 2129.96 137.787 Q2134.69 137.787 2137.63 141.537 Q2140.59 145.287 2140.59 151.398 Q2140.59 157.509 2137.63 161.259 Q2134.69 165.009 2129.96 165.009 Q2127.12 165.009 2125.06 163.898 Q2123.02 162.763 2121.68 160.449 M2136.17 151.398 Q2136.17 146.699 2134.22 144.037 Q2132.3 141.352 2128.92 141.352 Q2125.54 141.352 2123.6 144.037 Q2121.68 146.699 2121.68 151.398 Q2121.68 156.097 2123.6 158.782 Q2125.54 161.444 2128.92 161.444 Q2132.3 161.444 2134.22 158.782 Q2136.17 156.097 2136.17 151.398 Z" fill="#000000" fill-rule="nonzero" fill-opacity="1" /><path clip-path="url(#clip630)" d="M2157.7 141.398 Q2154.27 141.398 2152.28 144.083 Q2150.29 146.745 2150.29 151.398 Q2150.29 156.051 2152.26 158.736 Q2154.25 161.398 2157.7 161.398 Q2161.1 161.398 2163.09 158.713 Q2165.08 156.027 2165.08 151.398 Q2165.08 146.791 2163.09 144.106 Q2161.1 141.398 2157.7 141.398 M2157.7 137.787 Q2163.25 137.787 2166.42 141.398 Q2169.59 145.009 2169.59 151.398 Q2169.59 157.764 2166.42 161.398 Q2163.25 165.009 2157.7 165.009 Q2152.12 165.009 2148.95 161.398 Q2145.8 157.764 2145.8 151.398 Q2145.8 145.009 2148.95 141.398 Q2152.12 137.787 2157.7 137.787 Z" fill="#000000" fill-rule="nonzero" fill-opacity="1" /><path clip-path="url(#clip630)" d="M2176.65 138.412 L2180.91 138.412 L2180.91 164.338 L2176.65 164.338 L2176.65 138.412 M2176.65 128.319 L2180.91 128.319 L2180.91 133.713 L2176.65 133.713 L2176.65 128.319 Z" fill="#000000" fill-rule="nonzero" fill-opacity="1" /><path clip-path="url(#clip630)" d="M2211.38 148.689 L2211.38 164.338 L2207.12 164.338 L2207.12 148.828 Q2207.12 145.148 2205.68 143.319 Q2204.25 141.49 2201.38 141.49 Q2197.93 141.49 2195.94 143.69 Q2193.95 145.889 2193.95 149.685 L2193.95 164.338 L2189.66 164.338 L2189.66 138.412 L2193.95 138.412 L2193.95 142.44 Q2195.47 140.102 2197.53 138.944 Q2199.62 137.787 2202.32 137.787 Q2206.79 137.787 2209.08 140.565 Q2211.38 143.319 2211.38 148.689 Z" fill="#000000" fill-rule="nonzero" fill-opacity="1" /><path clip-path="url(#clip630)" d="M2224.08 131.051 L2224.08 138.412 L2232.86 138.412 L2232.86 141.722 L2224.08 141.722 L2224.08 155.796 Q2224.08 158.967 2224.94 159.87 Q2225.82 160.773 2228.48 160.773 L2232.86 160.773 L2232.86 164.338 L2228.48 164.338 Q2223.55 164.338 2221.68 162.509 Q2219.8 160.657 2219.8 155.796 L2219.8 141.722 L2216.68 141.722 L2216.68 138.412 L2219.8 138.412 L2219.8 131.051 L2224.08 131.051 Z" fill="#000000" fill-rule="nonzero" fill-opacity="1" /><path clip-path="url(#clip630)" d="M2254.99 139.176 L2254.99 143.203 Q2253.18 142.277 2251.24 141.815 Q2249.29 141.352 2247.21 141.352 Q2244.04 141.352 2242.44 142.324 Q2240.87 143.296 2240.87 145.24 Q2240.87 146.722 2242 147.578 Q2243.13 148.412 2246.56 149.176 L2248.02 149.5 Q2252.56 150.472 2254.45 152.254 Q2256.38 154.014 2256.38 157.185 Q2256.38 160.796 2253.5 162.902 Q2250.66 165.009 2245.66 165.009 Q2243.57 165.009 2241.31 164.592 Q2239.06 164.199 2236.56 163.388 L2236.56 158.99 Q2238.92 160.217 2241.21 160.842 Q2243.5 161.444 2245.75 161.444 Q2248.76 161.444 2250.38 160.426 Q2252 159.384 2252 157.509 Q2252 155.773 2250.82 154.847 Q2249.66 153.921 2245.7 153.064 L2244.22 152.717 Q2240.26 151.884 2238.5 150.171 Q2236.75 148.435 2236.75 145.426 Q2236.75 141.768 2239.34 139.778 Q2241.93 137.787 2246.7 137.787 Q2249.06 137.787 2251.14 138.134 Q2253.23 138.481 2254.99 139.176 Z" fill="#000000" fill-rule="nonzero" fill-opacity="1" /><polyline clip-path="url(#clip630)" style="stroke:#e26f46; stroke-linecap:round; stroke-linejoin:round; stroke-width:4; stroke-opacity:1; fill:none" points="1760.65,198.898 1905.22,198.898 "/>
<path clip-path="url(#clip630)" d="M1957.19 184.28 L1957.19 189.21 Q1954.83 187.011 1952.14 185.923 Q1949.48 184.835 1946.47 184.835 Q1940.54 184.835 1937.4 188.469 Q1934.25 192.08 1934.25 198.932 Q1934.25 205.761 1937.4 209.395 Q1940.54 213.006 1946.47 213.006 Q1949.48 213.006 1952.14 211.918 Q1954.83 210.83 1957.19 208.631 L1957.19 213.516 Q1954.73 215.182 1951.98 216.016 Q1949.25 216.849 1946.19 216.849 Q1938.34 216.849 1933.83 212.057 Q1929.32 207.242 1929.32 198.932 Q1929.32 190.599 1933.83 185.807 Q1938.34 180.993 1946.19 180.993 Q1949.29 180.993 1952.03 181.826 Q1954.78 182.636 1957.19 184.28 Z" fill="#000000" fill-rule="nonzero" fill-opacity="1" /><path clip-path="url(#clip630)" d="M1974.27 193.238 Q1970.84 193.238 1968.85 195.923 Q1966.86 198.585 1966.86 203.238 Q1966.86 207.891 1968.83 210.576 Q1970.82 213.238 1974.27 213.238 Q1977.67 213.238 1979.66 210.553 Q1981.65 207.867 1981.65 203.238 Q1981.65 198.631 1979.66 195.946 Q1977.67 193.238 1974.27 193.238 M1974.27 189.627 Q1979.83 189.627 1983 193.238 Q1986.17 196.849 1986.17 203.238 Q1986.17 209.604 1983 213.238 Q1979.83 216.849 1974.27 216.849 Q1968.69 216.849 1965.52 213.238 Q1962.37 209.604 1962.37 203.238 Q1962.37 196.849 1965.52 193.238 Q1968.69 189.627 1974.27 189.627 Z" fill="#000000" fill-rule="nonzero" fill-opacity="1" /><path clip-path="url(#clip630)" d="M2014.78 200.529 L2014.78 216.178 L2010.52 216.178 L2010.52 200.668 Q2010.52 196.988 2009.08 195.159 Q2007.65 193.33 2004.78 193.33 Q2001.33 193.33 1999.34 195.53 Q1997.35 197.729 1997.35 201.525 L1997.35 216.178 L1993.07 216.178 L1993.07 190.252 L1997.35 190.252 L1997.35 194.28 Q1998.88 191.942 2000.94 190.784 Q2003.02 189.627 2005.73 189.627 Q2010.2 189.627 2012.49 192.405 Q2014.78 195.159 2014.78 200.529 Z" fill="#000000" fill-rule="nonzero" fill-opacity="1" /><path clip-path="url(#clip630)" d="M2027.49 182.891 L2027.49 190.252 L2036.26 190.252 L2036.26 193.562 L2027.49 193.562 L2027.49 207.636 Q2027.49 210.807 2028.34 211.71 Q2029.22 212.613 2031.89 212.613 L2036.26 212.613 L2036.26 216.178 L2031.89 216.178 Q2026.96 216.178 2025.08 214.349 Q2023.21 212.497 2023.21 207.636 L2023.21 193.562 L2020.08 193.562 L2020.08 190.252 L2023.21 190.252 L2023.21 182.891 L2027.49 182.891 Z" fill="#000000" fill-rule="nonzero" fill-opacity="1" /><path clip-path="url(#clip630)" d="M2056.89 194.233 Q2056.17 193.817 2055.31 193.631 Q2054.48 193.423 2053.46 193.423 Q2049.85 193.423 2047.9 195.784 Q2045.98 198.122 2045.98 202.52 L2045.98 216.178 L2041.7 216.178 L2041.7 190.252 L2045.98 190.252 L2045.98 194.28 Q2047.33 191.918 2049.48 190.784 Q2051.63 189.627 2054.71 189.627 Q2055.15 189.627 2055.68 189.696 Q2056.21 189.743 2056.86 189.858 L2056.89 194.233 Z" fill="#000000" fill-rule="nonzero" fill-opacity="1" /><path clip-path="url(#clip630)" d="M2070.36 193.238 Q2066.93 193.238 2064.94 195.923 Q2062.95 198.585 2062.95 203.238 Q2062.95 207.891 2064.92 210.576 Q2066.91 213.238 2070.36 213.238 Q2073.76 213.238 2075.75 210.553 Q2077.74 207.867 2077.74 203.238 Q2077.74 198.631 2075.75 195.946 Q2073.76 193.238 2070.36 193.238 M2070.36 189.627 Q2075.91 189.627 2079.08 193.238 Q2082.26 196.849 2082.26 203.238 Q2082.26 209.604 2079.08 213.238 Q2075.91 216.849 2070.36 216.849 Q2064.78 216.849 2061.61 213.238 Q2058.46 209.604 2058.46 203.238 Q2058.46 196.849 2061.61 193.238 Q2064.78 189.627 2070.36 189.627 Z" fill="#000000" fill-rule="nonzero" fill-opacity="1" /><path clip-path="url(#clip630)" d="M2089.32 180.159 L2093.58 180.159 L2093.58 216.178 L2089.32 216.178 L2089.32 180.159 Z" fill="#000000" fill-rule="nonzero" fill-opacity="1" /><path clip-path="url(#clip630)" d="M2136.21 191.247 L2136.21 195.229 Q2134.41 194.233 2132.58 193.747 Q2130.77 193.238 2128.92 193.238 Q2124.78 193.238 2122.49 195.877 Q2120.2 198.492 2120.2 203.238 Q2120.2 207.983 2122.49 210.622 Q2124.78 213.238 2128.92 213.238 Q2130.77 213.238 2132.58 212.752 Q2134.41 212.242 2136.21 211.247 L2136.21 215.182 Q2134.43 216.016 2132.51 216.432 Q2130.61 216.849 2128.46 216.849 Q2122.6 216.849 2119.15 213.168 Q2115.7 209.488 2115.7 203.238 Q2115.7 196.895 2119.18 193.261 Q2122.67 189.627 2128.74 189.627 Q2130.7 189.627 2132.58 190.043 Q2134.45 190.437 2136.21 191.247 Z" fill="#000000" fill-rule="nonzero" fill-opacity="1" /><path clip-path="url(#clip630)" d="M2143.18 205.946 L2143.18 190.252 L2147.44 190.252 L2147.44 205.784 Q2147.44 209.465 2148.88 211.316 Q2150.31 213.145 2153.18 213.145 Q2156.63 213.145 2158.62 210.946 Q2160.64 208.747 2160.64 204.951 L2160.64 190.252 L2164.89 190.252 L2164.89 216.178 L2160.64 216.178 L2160.64 212.196 Q2159.08 214.557 2157.02 215.715 Q2154.99 216.849 2152.28 216.849 Q2147.81 216.849 2145.5 214.071 Q2143.18 211.293 2143.18 205.946 M2153.9 189.627 L2153.9 189.627 Z" fill="#000000" fill-rule="nonzero" fill-opacity="1" /><path clip-path="url(#clip630)" d="M2188.69 194.233 Q2187.97 193.817 2187.12 193.631 Q2186.28 193.423 2185.26 193.423 Q2181.65 193.423 2179.71 195.784 Q2177.79 198.122 2177.79 202.52 L2177.79 216.178 L2173.51 216.178 L2173.51 190.252 L2177.79 190.252 L2177.79 194.28 Q2179.13 191.918 2181.28 190.784 Q2183.44 189.627 2186.51 189.627 Q2186.95 189.627 2187.49 189.696 Q2188.02 189.743 2188.67 189.858 L2188.69 194.233 Z" fill="#000000" fill-rule="nonzero" fill-opacity="1" /><path clip-path="url(#clip630)" d="M2190.1 190.252 L2194.62 190.252 L2202.72 212.011 L2210.82 190.252 L2215.33 190.252 L2205.61 216.178 L2199.82 216.178 L2190.1 190.252 Z" fill="#000000" fill-rule="nonzero" fill-opacity="1" /><path clip-path="url(#clip630)" d="M2243.39 202.15 L2243.39 204.233 L2223.81 204.233 Q2224.08 208.631 2226.44 210.946 Q2228.83 213.238 2233.07 213.238 Q2235.52 213.238 2237.81 212.636 Q2240.13 212.034 2242.39 210.83 L2242.39 214.858 Q2240.1 215.83 2237.69 216.34 Q2235.29 216.849 2232.81 216.849 Q2226.61 216.849 2222.97 213.238 Q2219.36 209.627 2219.36 203.469 Q2219.36 197.104 2222.79 193.377 Q2226.24 189.627 2232.07 189.627 Q2237.3 189.627 2240.33 193.006 Q2243.39 196.363 2243.39 202.15 M2239.13 200.9 Q2239.08 197.405 2237.16 195.321 Q2235.26 193.238 2232.12 193.238 Q2228.55 193.238 2226.4 195.252 Q2224.27 197.266 2223.94 200.923 L2239.13 200.9 Z" fill="#000000" fill-rule="nonzero" fill-opacity="1" /><polyline clip-path="url(#clip630)" style="stroke:#3da44d; stroke-linecap:round; stroke-linejoin:round; stroke-width:4; stroke-opacity:1; fill:none" points="1760.65,250.738 1905.22,250.738 "/>
<path clip-path="url(#clip630)" d="M1933.99 251.513 L1933.99 264.175 L1941.49 264.175 Q1945.27 264.175 1947.07 262.624 Q1948.9 261.05 1948.9 257.832 Q1948.9 254.592 1947.07 253.064 Q1945.27 251.513 1941.49 251.513 L1933.99 251.513 M1933.99 237.3 L1933.99 247.717 L1940.91 247.717 Q1944.34 247.717 1946.01 246.444 Q1947.7 245.147 1947.7 242.508 Q1947.7 239.893 1946.01 238.596 Q1944.34 237.3 1940.91 237.3 L1933.99 237.3 M1929.32 233.458 L1941.26 233.458 Q1946.61 233.458 1949.5 235.68 Q1952.4 237.902 1952.4 241.999 Q1952.4 245.17 1950.91 247.045 Q1949.43 248.92 1946.56 249.383 Q1950.01 250.124 1951.91 252.485 Q1953.83 254.823 1953.83 258.342 Q1953.83 262.971 1950.68 265.494 Q1947.53 268.018 1941.72 268.018 L1929.32 268.018 L1929.32 233.458 Z" fill="#000000" fill-rule="nonzero" fill-opacity="1" /><path clip-path="url(#clip630)" d="M1983.83 253.99 L1983.83 256.073 L1964.25 256.073 Q1964.52 260.471 1966.89 262.786 Q1969.27 265.078 1973.51 265.078 Q1975.96 265.078 1978.25 264.476 Q1980.57 263.874 1982.84 262.67 L1982.84 266.698 Q1980.54 267.67 1978.14 268.18 Q1975.73 268.689 1973.25 268.689 Q1967.05 268.689 1963.41 265.078 Q1959.8 261.467 1959.8 255.309 Q1959.8 248.944 1963.23 245.217 Q1966.68 241.467 1972.51 241.467 Q1977.74 241.467 1980.77 244.846 Q1983.83 248.203 1983.83 253.99 M1979.57 252.74 Q1979.52 249.245 1977.6 247.161 Q1975.71 245.078 1972.56 245.078 Q1968.99 245.078 1966.84 247.092 Q1964.71 249.106 1964.39 252.763 L1979.57 252.74 Z" fill="#000000" fill-rule="nonzero" fill-opacity="1" /><path clip-path="url(#clip630)" d="M1988.97 242.092 L2009.2 242.092 L2009.2 245.981 L1993.18 264.615 L2009.2 264.615 L2009.2 268.018 L1988.39 268.018 L1988.39 264.129 L2004.41 245.495 L1988.97 245.495 L1988.97 242.092 Z" fill="#000000" fill-rule="nonzero" fill-opacity="1" /><path clip-path="url(#clip630)" d="M2015.71 242.092 L2019.96 242.092 L2019.96 268.018 L2015.71 268.018 L2015.71 242.092 M2015.71 231.999 L2019.96 231.999 L2019.96 237.393 L2015.71 237.393 L2015.71 231.999 Z" fill="#000000" fill-rule="nonzero" fill-opacity="1" /><path clip-path="url(#clip630)" d="M2051.05 253.99 L2051.05 256.073 L2031.47 256.073 Q2031.75 260.471 2034.11 262.786 Q2036.49 265.078 2040.73 265.078 Q2043.18 265.078 2045.47 264.476 Q2047.79 263.874 2050.06 262.67 L2050.06 266.698 Q2047.77 267.67 2045.36 268.18 Q2042.95 268.689 2040.47 268.689 Q2034.27 268.689 2030.64 265.078 Q2027.02 261.467 2027.02 255.309 Q2027.02 248.944 2030.45 245.217 Q2033.9 241.467 2039.73 241.467 Q2044.96 241.467 2048 244.846 Q2051.05 248.203 2051.05 253.99 M2046.79 252.74 Q2046.75 249.245 2044.83 247.161 Q2042.93 245.078 2039.78 245.078 Q2036.21 245.078 2034.06 247.092 Q2031.93 249.106 2031.61 252.763 L2046.79 252.74 Z" fill="#000000" fill-rule="nonzero" fill-opacity="1" /><path clip-path="url(#clip630)" d="M2073.07 246.073 Q2072.35 245.657 2071.49 245.471 Q2070.66 245.263 2069.64 245.263 Q2066.03 245.263 2064.08 247.624 Q2062.16 249.962 2062.16 254.36 L2062.16 268.018 L2057.88 268.018 L2057.88 242.092 L2062.16 242.092 L2062.16 246.12 Q2063.51 243.758 2065.66 242.624 Q2067.81 241.467 2070.89 241.467 Q2071.33 241.467 2071.86 241.536 Q2072.39 241.583 2073.04 241.698 L2073.07 246.073 Z" fill="#000000" fill-rule="nonzero" fill-opacity="1" /><path clip-path="url(#clip630)" d="M2111.26 243.087 L2111.26 247.069 Q2109.45 246.073 2107.63 245.587 Q2105.82 245.078 2103.97 245.078 Q2099.83 245.078 2097.53 247.717 Q2095.24 250.332 2095.24 255.078 Q2095.24 259.823 2097.53 262.462 Q2099.83 265.078 2103.97 265.078 Q2105.82 265.078 2107.63 264.592 Q2109.45 264.082 2111.26 263.087 L2111.26 267.022 Q2109.48 267.856 2107.56 268.272 Q2105.66 268.689 2103.51 268.689 Q2097.65 268.689 2094.2 265.008 Q2090.75 261.328 2090.75 255.078 Q2090.75 248.735 2094.22 245.101 Q2097.72 241.467 2103.78 241.467 Q2105.75 241.467 2107.63 241.883 Q2109.5 242.277 2111.26 243.087 Z" fill="#000000" fill-rule="nonzero" fill-opacity="1" /><path clip-path="url(#clip630)" d="M2118.23 257.786 L2118.23 242.092 L2122.49 242.092 L2122.49 257.624 Q2122.49 261.305 2123.92 263.156 Q2125.36 264.985 2128.23 264.985 Q2131.68 264.985 2133.67 262.786 Q2135.68 260.587 2135.68 256.791 L2135.68 242.092 L2139.94 242.092 L2139.94 268.018 L2135.68 268.018 L2135.68 264.036 Q2134.13 266.397 2132.07 267.555 Q2130.03 268.689 2127.32 268.689 Q2122.86 268.689 2120.54 265.911 Q2118.23 263.133 2118.23 257.786 M2128.95 241.467 L2128.95 241.467 Z" fill="#000000" fill-rule="nonzero" fill-opacity="1" /><path clip-path="url(#clip630)" d="M2163.74 246.073 Q2163.02 245.657 2162.16 245.471 Q2161.33 245.263 2160.31 245.263 Q2156.7 245.263 2154.76 247.624 Q2152.83 249.962 2152.83 254.36 L2152.83 268.018 L2148.55 268.018 L2148.55 242.092 L2152.83 242.092 L2152.83 246.12 Q2154.18 243.758 2156.33 242.624 Q2158.48 241.467 2161.56 241.467 Q2162 241.467 2162.53 241.536 Q2163.07 241.583 2163.71 241.698 L2163.74 246.073 Z" fill="#000000" fill-rule="nonzero" fill-opacity="1" /><path clip-path="url(#clip630)" d="M2165.15 242.092 L2169.66 242.092 L2177.76 263.851 L2185.87 242.092 L2190.38 242.092 L2180.66 268.018 L2174.87 268.018 L2165.15 242.092 Z" fill="#000000" fill-rule="nonzero" fill-opacity="1" /><path clip-path="url(#clip630)" d="M2218.44 253.99 L2218.44 256.073 L2198.85 256.073 Q2199.13 260.471 2201.49 262.786 Q2203.88 265.078 2208.11 265.078 Q2210.57 265.078 2212.86 264.476 Q2215.17 263.874 2217.44 262.67 L2217.44 266.698 Q2215.15 267.67 2212.74 268.18 Q2210.33 268.689 2207.86 268.689 Q2201.65 268.689 2198.02 265.078 Q2194.41 261.467 2194.41 255.309 Q2194.41 248.944 2197.83 245.217 Q2201.28 241.467 2207.12 241.467 Q2212.35 241.467 2215.38 244.846 Q2218.44 248.203 2218.44 253.99 M2214.18 252.74 Q2214.13 249.245 2212.21 247.161 Q2210.31 245.078 2207.16 245.078 Q2203.6 245.078 2201.44 247.092 Q2199.32 249.106 2198.99 252.763 L2214.18 252.74 Z" fill="#000000" fill-rule="nonzero" fill-opacity="1" /></svg>
